<?xml version="1.0" standalone="no"?>
<!DOCTYPE svg PUBLIC "-//W3C//DTD SVG 20010904//EN"
 "http://www.w3.org/TR/2001/REC-SVG-20010904/DTD/svg10.dtd">
<svg version="1.0" xmlns="http://www.w3.org/2000/svg"
 width="512.000000pt" height="512.000000pt" viewBox="0 0 512.000000 512.000000"
 preserveAspectRatio="xMidYMid meet">

<g transform="translate(0.000000,512.000000) scale(0.100000,-0.100000)"
fill="#000000" stroke="none">
<path d="M580 4645 l0 -475 75 0 75 0 0 400 0 400 430 0 430 0 0 75 0 75 -505
0 -505 0 0 -475z"/>
<path d="M1740 5045 l0 -75 1325 0 1325 0 0 -255 0 -255 75 0 75 0 0 330 0
330 -1400 0 -1400 0 0 -75z"/>
<path d="M3660 4745 l0 -75 75 0 75 0 0 75 0 75 -75 0 -75 0 0 -75z"/>
<path d="M3960 4745 l0 -75 65 0 65 0 0 -65 0 -65 75 0 75 0 0 140 0 140 -140
0 -140 0 0 -75z"/>
<path d="M1758 4318 c-405 -172 -735 -315 -732 -317 3 -3 139 -62 302 -131
l297 -125 3 -477 2 -476 88 -37 c236 -99 455 -145 728 -152 330 -9 576 35 866
156 l78 33 2 476 3 476 135 58 c74 31 141 57 148 58 9 0 12 -68 12 -309 l0
-309 -29 -11 c-15 -7 -42 -27 -59 -44 -57 -59 -62 -85 -62 -312 l0 -205 225 0
225 0 0 188 c0 206 -8 255 -54 314 -14 19 -42 43 -61 54 l-35 19 0 345 0 345
76 30 c42 17 77 32 79 36 5 6 -1466 629 -1486 629 -8 0 -346 -141 -751 -312z
m1305 -80 c301 -127 544 -235 540 -239 -13 -12 -1076 -459 -1092 -459 -16 0
-1080 447 -1094 459 -6 6 1060 467 1088 470 6 1 257 -103 558 -231z m-907
-718 l355 -150 354 150 c195 83 359 150 365 150 7 0 10 -133 10 -389 l0 -389
-42 -17 c-80 -32 -229 -75 -341 -97 -98 -20 -142 -23 -347 -23 -205 0 -249 3
-347 23 -112 22 -261 65 -340 97 l-43 17 0 389 c0 270 3 389 11 389 6 0 170
-67 365 -150z m1662 -446 c20 -23 22 -35 22 -140 l0 -114 -75 0 -75 0 0 116
c0 121 7 150 43 164 30 12 58 3 85 -26z"/>
<path d="M2508 4224 l-27 -65 32 -14 c18 -7 74 -32 126 -54 52 -23 95 -40 97
-38 12 12 52 133 47 138 -12 10 -223 99 -236 99 -7 0 -24 -30 -39 -66z"/>
<path d="M2905 4066 c-15 -35 -25 -69 -21 -74 6 -11 125 -57 130 -51 2 2 15
32 30 67 l25 63 -65 30 c-36 16 -67 29 -69 29 -1 0 -15 -29 -30 -64z"/>
<path d="M4090 4315 l0 -75 75 0 75 0 0 75 0 75 -75 0 -75 0 0 -75z"/>
<path d="M4390 3410 l0 -900 75 0 74 0 3 113 3 114 167 -116 c92 -64 168 -118
168 -121 0 -5 -1765 -718 -1800 -727 -9 -2 -119 80 -264 197 -137 110 -255
199 -261 196 -7 -2 -118 -89 -246 -193 -129 -104 -240 -192 -247 -197 -13 -8
-1823 712 -1822 724 1 3 76 57 168 121 l167 116 3 -114 3 -113 74 0 75 0 0
755 0 755 -75 0 -75 0 0 -549 0 -548 -287 -200 -288 -200 -3 -1262 -2 -1261
2560 0 2560 0 0 855 0 855 -75 0 -75 0 0 -736 c0 -405 -4 -734 -8 -732 -24 9
-1752 1411 -1747 1417 4 3 399 164 878 357 l872 350 3 -253 2 -253 75 0 75 0
0 330 0 329 -290 203 -290 202 0 693 0 693 -75 0 -75 0 0 -900z m-3330 -1407
c459 -184 839 -338 843 -343 5 -4 -236 -204 -535 -445 -299 -241 -551 -445
-562 -455 -18 -18 -17 -20 25 -73 24 -31 47 -55 51 -54 4 1 381 303 838 672
457 369 835 670 840 670 8 0 929 -740 2108 -1693 l164 -132 -2272 0 -2272 0
236 191 c151 121 234 194 230 202 -4 7 -25 33 -47 59 l-39 48 -254 -205 c-139
-113 -256 -205 -259 -205 -3 0 -5 479 -5 1065 l0 1065 38 -16 c20 -8 413 -166
872 -351z"/>
<path d="M1027 1326 c-104 -85 -193 -158 -199 -164 -8 -8 1 -27 32 -67 23 -30
45 -55 48 -55 3 0 96 73 206 162 111 89 203 163 205 164 6 5 -84 113 -94 113
-5 0 -95 -69 -198 -153z"/>
<path d="M638 1013 c-63 -53 -63 -50 0 -121 l38 -44 57 47 57 46 -46 60 c-26
32 -47 59 -48 59 -1 -1 -27 -22 -58 -47z"/>
<path d="M2180 475 l0 -75 75 0 75 0 0 75 0 75 -75 0 -75 0 0 -75z"/>
<path d="M2482 478 l3 -73 75 0 75 0 3 73 3 72 -81 0 -81 0 3 -72z"/>
<path d="M2790 475 l0 -75 75 0 75 0 0 75 0 75 -75 0 -75 0 0 -75z"/>
</g>
</svg>
