<?xml version="1.0" standalone="no"?>
<!DOCTYPE svg PUBLIC "-//W3C//DTD SVG 20010904//EN"
 "http://www.w3.org/TR/2001/REC-SVG-20010904/DTD/svg10.dtd">
<svg version="1.0" xmlns="http://www.w3.org/2000/svg"
 width="512.000000pt" height="512.000000pt" viewBox="0 0 512.000000 512.000000"
 preserveAspectRatio="xMidYMid meet">

<g transform="translate(0.000000,512.000000) scale(0.100000,-0.100000)"
fill="#000000" stroke="none">
<path d="M1495 4045 c-556 -184 -1094 -362 -1197 -396 -103 -33 -202 -70 -220
-82 -40 -27 -78 -98 -78 -146 0 -45 35 -116 68 -140 15 -10 232 -86 483 -170
l456 -152 -8 -52 c-20 -120 -49 -329 -49 -348 0 -28 44 -69 75 -69 52 0 70 34
88 170 28 208 38 252 53 246 8 -3 62 -20 119 -37 l105 -32 0 -94 0 -93 -45
-21 c-91 -43 -165 -157 -165 -254 0 -47 25 -122 56 -166 l27 -39 -26 -118
c-14 -64 -33 -171 -42 -237 -9 -66 -18 -122 -20 -124 -2 -2 -30 14 -62 35
l-58 39 1 145 c1 80 5 191 8 248 6 100 6 103 -18 127 -31 31 -70 32 -100 1
-29 -28 -37 -103 -39 -377 -2 -184 -2 -185 24 -225 18 -26 57 -58 119 -96 50
-31 96 -58 101 -60 5 -2 4 -115 -3 -275 -12 -298 -11 -312 43 -357 38 -32 139
-51 274 -51 136 0 236 19 275 52 46 38 54 78 46 245 -4 81 -4 148 1 147 4 0
75 -15 158 -32 l150 -32 7 -53 c33 -229 200 -432 355 -432 32 0 205 59 651
221 547 199 612 221 655 216 66 -6 117 -56 169 -165 43 -91 78 -122 137 -122
35 0 378 120 419 146 25 17 52 70 52 105 0 58 -97 180 -183 229 l-49 28 71 27
c75 28 91 45 91 93 0 29 -20 54 -53 65 -10 4 -66 -11 -129 -33 -61 -22 -113
-40 -115 -40 -2 0 -3 29 -3 63 0 129 -58 287 -140 379 -41 48 -41 48 -18 56
761 279 745 274 779 256 101 -52 189 -239 176 -377 -8 -88 -19 -98 -157 -147
-144 -51 -170 -69 -170 -115 0 -36 36 -75 70 -75 19 0 245 82 288 104 67 35
111 120 119 229 14 199 -109 443 -262 517 -83 40 -120 34 -399 -69 -137 -50
-250 -90 -252 -89 -1 2 -7 57 -13 123 -18 198 -56 481 -76 572 -5 21 19 30
452 173 251 83 469 160 484 171 34 24 69 94 69 140 0 44 -37 117 -72 143 -16
11 -223 84 -460 163 -1886 624 -1976 653 -2030 653 -43 0 -249 -66 -1063 -335z
m2279 -207 c664 -220 1191 -399 1194 -406 2 -8 -2 -19 -9 -27 -8 -7 -337 -119
-731 -249 -621 -205 -720 -240 -738 -263 -34 -44 -2 -113 52 -113 15 0 340
100 414 127 13 5 26 -60 54 -277 24 -180 46 -437 38 -445 -3 -3 -419 -156
-924 -340 -912 -331 -919 -334 -957 -376 -20 -23 -40 -53 -43 -65 -4 -13 -14
-24 -23 -24 -20 0 -230 43 -287 59 l-41 11 -7 93 c-14 174 -41 359 -78 529
l-21 96 31 47 c54 81 64 183 27 272 -20 47 -90 118 -140 142 l-45 21 0 65 c0
36 3 65 8 65 4 0 216 -70 472 -156 413 -139 473 -156 535 -157 64 -2 98 8 392
106 266 89 326 113 343 135 35 43 4 112 -49 112 -14 0 -173 -48 -354 -107
l-327 -107 -438 143 c-240 79 -448 148 -462 153 -22 8 5 29 323 238 l347 229
42 -16 c33 -13 78 -17 188 -17 145 -1 146 -1 213 32 89 44 122 90 121 171 -1
129 -100 222 -269 252 -213 37 -424 -106 -402 -272 l5 -37 -387 -255 -386
-256 -644 213 c-413 136 -648 218 -655 229 -7 11 -7 20 -1 26 6 5 429 147 940
315 512 169 1043 345 1180 391 138 46 264 84 280 84 17 1 565 -175 1219 -391z
m-1094 -221 c25 -13 51 -35 60 -49 13 -24 13 -29 -4 -47 -27 -30 -106 -44
-210 -39 -134 8 -179 37 -142 93 47 71 196 92 296 42z m-1166 -1121 c70 -29
102 -107 70 -173 -37 -75 -117 -103 -182 -63 -96 58 -91 182 9 232 41 22 59
22 103 4z m30 -466 c24 -105 44 -235 60 -386 17 -151 41 -623 32 -631 -2 -3
-41 -10 -86 -15 -77 -10 -241 0 -257 15 -8 9 16 492 33 639 16 146 37 278 60
378 l14 65 65 0 65 0 14 -65z m2305 -115 c90 -46 171 -210 171 -348 0 -96 -16
-119 -99 -150 -40 -15 -76 -27 -80 -27 -5 0 -11 39 -14 88 -7 130 -56 253
-138 353 l-38 47 67 25 c80 30 94 32 131 12z m-313 -140 c38 -29 89 -107 116
-177 29 -76 35 -203 11 -247 -18 -34 -28 -38 -503 -211 l-485 -177 -6 91 c-10
136 -73 288 -154 376 l-24 25 482 177 c326 120 490 175 507 172 14 -3 39 -16
56 -29z m-1161 -421 c38 -25 103 -129 125 -201 37 -121 18 -253 -38 -261 -57
-8 -143 89 -188 212 -39 109 -29 262 18 279 16 5 49 -6 83 -29z m1871 -98 c67
-30 134 -90 118 -105 -9 -10 -254 -101 -270 -101 -5 0 -22 26 -39 57 -16 31
-48 80 -72 108 l-42 52 32 11 c18 6 73 10 122 8 73 -2 101 -7 151 -30z"/>
</g>
</svg>
